<svg xmlns="http://www.w3.org/2000/svg" width="83.83" height="98.939" viewBox="0 0 83.83 98.939">
  <g id="brewery" transform="translate(-3.5 -3)">
    <path id="Path_12" data-name="Path 12" d="M20.018,3h8.037a4.12,4.12,0,0,1,4.018,4.018v5.358a4.12,4.12,0,0,1-4.018,4.018H20.018A4.12,4.12,0,0,1,16,12.376V7.018A4.12,4.12,0,0,1,20.018,3Z" transform="translate(16.789)" fill="#72c5fd"/>
    <path id="Path_13" data-name="Path 13" d="M47.522,32.824V18.894A2.531,2.531,0,0,1,50.2,16.215a2.531,2.531,0,0,0,2.679-2.679V8.179A2.531,2.531,0,0,0,50.2,5.5H31.449A2.531,2.531,0,0,0,28.77,8.179v5.358a2.531,2.531,0,0,0,2.679,2.679,2.531,2.531,0,0,1,2.679,2.679v14.2a2.086,2.086,0,0,1-.8,1.875C27.967,39.522,6,52.648,6,68.453,6,87.741,21.537,95.242,40.825,95.242s34.825-7.5,34.825-26.789c0-14.734-21.431-29.735-26.789-33.486A2.732,2.732,0,0,1,47.522,32.824Z" transform="translate(0 4.197)" fill="none" stroke="#72c5fd" stroke-miterlimit="10" stroke-width="5"/>
    <path id="Path_14" data-name="Path 14" d="M13.626,23.7C10.411,27.45,8,32,8,36.559,8,52.9,21.126,59.329,37.468,59.329S66.935,52.9,66.935,36.559c0-4.286-2.143-8.572-5.09-12.591" transform="translate(3.358 34.753)" fill="none"/>
    <path id="Path_15" data-name="Path 15" d="M31.356,17.008l-4.554,6.7a3.3,3.3,0,0,0-.536,2.679L32.7,50.226a3.615,3.615,0,0,0,4.018,2.411L48.5,49.422A3.615,3.615,0,0,0,50.911,45.4L44.482,21.562a4.166,4.166,0,0,0-1.607-2.143l-7.233-3.483A3.283,3.283,0,0,0,31.356,17.008Z" transform="translate(33.847 21.085)" fill="none" stroke="#72c5fd" stroke-miterlimit="10" stroke-width="5"/>
    <path id="Path_16" data-name="Path 16" d="M53.344,27.573a1.392,1.392,0,0,1-1.072-.536C47.718,20.072,38.61,15.25,37,14.179H15.839A1.265,1.265,0,0,1,14.5,12.839,1.265,1.265,0,0,1,15.839,11.5h21.7l.268.268c.536.268,10.983,5.626,16.609,13.93a1.324,1.324,0,0,1-.268,1.875Z" transform="translate(14.27 14.27)" fill="#72c5fd"/>
  </g>
</svg>
