<svg xmlns="http://www.w3.org/2000/svg" width="100.121" height="100.317" viewBox="0 0 100.121 100.317">
  <defs>
    <style>
      .cls-1 {
        fill: none;
        stroke: #fbdebf;
        stroke-width: 6px;
      }
    </style>
  </defs>
  <g id="call" transform="translate(2.582 3)">
    <g id="Group_11" data-name="Group 11" transform="translate(0.539 0)">
      <path id="Path_26" data-name="Path 26" class="cls-1" d="M92.074,69.132,78.929,55.986c-4.695-4.695-12.676-2.817-14.554,3.286a8.946,8.946,0,0,1-10.329,5.634c-9.39-2.347-22.066-14.554-24.413-24.413-1.408-4.226,1.408-8.92,5.634-10.329,6.1-1.878,7.981-9.859,3.286-14.554L25.407,2.465c-3.756-3.286-9.39-3.286-12.676,0l-8.92,8.92c-8.92,9.39.939,34.272,23,56.338s46.949,32.395,56.338,23l8.92-8.92C95.361,78.052,95.361,72.418,92.074,69.132Z" transform="translate(-0.539 0)"/>
    </g>
  </g>
</svg>
