<svg xmlns="http://www.w3.org/2000/svg" width="135.366" height="79.288" viewBox="0 0 135.366 79.288">
  <g id="handshake" transform="translate(0.015 0.012)">
    <path id="Path_3" data-name="Path 3" d="M73.82,75.13a1.95,1.95,0,1,0-1.2-3.71,37.11,37.11,0,0,1-7,1.74c-1.93.23-3.64.12-4.72-.68C57.2,69.74,35,51.1,30.11,47l8-30.49,2.39-.92A135.64,135.64,0,0,0,61.26,15c7.32-.73,10.14-1,31.57,5.65l12.85,30.23-1.25.85c-.8.54-1.68,1.17-2.62,1.84a1.95,1.95,0,1,0,2.27,3.16c.78-.56,1.62-1.15,2.54-1.79s1.62-1.09,2.44-1.62a2,2,0,0,0,.85-2.47l-1.8.77,1.79-.76L96.11,18.42a1.94,1.94,0,0,0-1.26-1.22l-.58,1.86.58-1.86c-23-7.18-26-6.87-34-6.07a132.4,132.4,0,0,1-20.52.58,2,2,0,0,0-.93.11h0l-3.52,1.36a2,2,0,0,0-1.37,1.39l1.89.49-1.89-.49-8.43,32.5a2,2,0,0,0,.59,2.14l1.25-1.5-1.25,1.5c.08.06,27.63,23.23,32,26.41,2,1.47,4.65,1.75,7.48,1.41A41.239,41.239,0,0,0,73.82,75.13Z" fill="#72c5fd" stroke="rgba(0,0,0,0)" stroke-miterlimit="10" stroke-width="1"/>
    <path id="Path_4" data-name="Path 4" d="M55.84,15.25a1.943,1.943,0,0,0-3.23-2.16c0,.05-13.1,19.29-1.91,24.54h0l.21.08c4.42,1.84,7.81-.66,11.51-3.38,5.25-3.87,11.3-8.32,22.35,5.59h0a3.081,3.081,0,0,0,.24.26c1.33,1.35,14.54,14.92,16,18.38a3.52,3.52,0,0,1,.2,2,3.14,3.14,0,0,1-.88,1.64,3.44,3.44,0,0,1-2,.89,9.09,9.09,0,0,1-4.61-1L78.55,47a2,2,0,1,0-2.76,2.76L91.14,65.14a2,2,0,0,0,.59.42h0a13.2,13.2,0,0,0,7,1.44A7.32,7.32,0,0,0,103,65.06a7,7,0,0,0,2-3.71,7.29,7.29,0,0,0-.44-4.3c-1.79-4.17-15.74-18.47-16.85-19.61-13.35-16.76-21-11.13-27.64-6.24-2.76,2-5.3,3.9-7.7,2.93h-.06C45.35,30.75,55.81,15.29,55.84,15.25Z" fill="#72c5fd" stroke="rgba(0,0,0,0)" stroke-miterlimit="10" stroke-width="1"/>
    <path id="Path_5" data-name="Path 5" d="M71.08,55.52a1.95,1.95,0,1,0-2.63,2.87L82.76,71.61a8.8,8.8,0,0,0,5.69,2A7.58,7.58,0,0,0,92,72.78a5.7,5.7,0,0,0,2.67-3c.63-1.62.66-3.78-.27-6.57a1.94,1.94,0,1,0-3.68,1.21,6.13,6.13,0,0,1,.32,4,1.87,1.87,0,0,1-.88,1,3.68,3.68,0,0,1-1.71.38,4.74,4.74,0,0,1-3-1Z" fill="#72c5fd" stroke="rgba(0,0,0,0)" stroke-miterlimit="10" stroke-width="1"/>
    <path id="Path_6" data-name="Path 6" d="M66.82,64.37a1.945,1.945,0,0,0-2.73,2.77l10,9.72,1.36-1.38L74.1,76.87a2,2,0,0,0,.59.4c1.45.78,10.8,5.3,11.83-6.47a1.95,1.95,0,1,0-3.88-.33c-.52,5.87-5,4-6,3.43Z" fill="#72c5fd" stroke="rgba(0,0,0,0)" stroke-miterlimit="10" stroke-width="1"/>
    <g id="Group_1" data-name="Group 1">
      <path id="Path_7" data-name="Path 7" d="M18,.7,35,5.25A5.83,5.83,0,0,1,38.57,8h0a5.78,5.78,0,0,1,.59,4.42L29,50.35a5.82,5.82,0,0,1-2.72,3.55h0a5.85,5.85,0,0,1-4.43.59l-17-4.55A5.83,5.83,0,0,1,1.3,47.21h0a5.8,5.8,0,0,1-.6-4.44L10.86,4.84a5.83,5.83,0,0,1,2.73-3.55h0A5.8,5.8,0,0,1,18,.7ZM34,9,17,4.46a2,2,0,0,0-1.48.19h0a2,2,0,0,0-.91,1.18L4.46,43.78a2,2,0,0,0,.19,1.48h0a2,2,0,0,0,1.18.91l17,4.56a1.94,1.94,0,0,0,1.48-.2h0a2,2,0,0,0,.91-1.18L35.4,11.41a1.94,1.94,0,0,0-.2-1.48h0A1.91,1.91,0,0,0,34,9Z" fill="#72c5fd" stroke="rgba(0,0,0,0)" stroke-miterlimit="10" stroke-width="1"/>
      <path id="Path_8" data-name="Path 8" d="M14.35,35.13a5.41,5.41,0,1,1-3.84,1.59,5.41,5.41,0,0,1,3.84-1.59Zm1.08,4.35a1.52,1.52,0,0,0-2.6,1.07,1.55,1.55,0,0,0,.44,1.08,1.52,1.52,0,0,0,2.16,0,1.55,1.55,0,0,0,.44-1.08,1.51,1.51,0,0,0-.44-1.07Z" fill="#72c5fd" stroke="rgba(0,0,0,0)" stroke-miterlimit="10" stroke-width="1"/>
    </g>
    <g id="Group_2" data-name="Group 2">
      <path id="Path_9" data-name="Path 9" d="M112.44,7,96.32,14.08a1.93,1.93,0,0,0-1,1.08,2,2,0,0,0,0,1.5l15.76,36a2,2,0,0,0,2.57,1l16.12-7.06a1.91,1.91,0,0,0,1-1.08,2,2,0,0,0,0-1.5L115,8a1.91,1.91,0,0,0-1.08-1,2,2,0,0,0-1.5,0ZM94.77,10.5l16.12-7.06a5.85,5.85,0,0,1,7.7,3l15.75,36a5.83,5.83,0,0,1,.09,4.47,5.9,5.9,0,0,1-3.1,3.23L115.21,57.2a5.86,5.86,0,0,1-7.7-3l-15.76-36a5.85,5.85,0,0,1,3-7.69Z" fill="#72c5fd" stroke="rgba(0,0,0,0)" stroke-miterlimit="10" stroke-width="1"/>
      <path id="Path_10" data-name="Path 10" d="M120.28,40.8a1.47,1.47,0,0,0-1,.6,1.52,1.52,0,0,0,.32,2.13,1.527,1.527,0,0,0,2.42-1.46,1.52,1.52,0,0,0-1.74-1.27Zm-4.14-1.71a5.42,5.42,0,1,1,.366,6.865,5.46,5.46,0,0,1-.366-6.865Z" fill="#72c5fd" stroke="rgba(0,0,0,0)" stroke-miterlimit="10" stroke-width="1"/>
    </g>
  </g>
</svg>
