<svg xmlns="http://www.w3.org/2000/svg" xmlns:xlink="http://www.w3.org/1999/xlink" width="645" height="607" viewBox="0 0 645 607">
  <defs>
    <style>
      .cls-1, .cls-13, .cls-2, .cls-23, .cls-25, .cls-9 {
        isolation: isolate;
      }

      .cls-2 {
        opacity: 0.75;
        mix-blend-mode: multiply;
      }

      .cls-3 {
        fill: #2098ec;
      }

      .cls-4 {
        fill: #007bc6;
      }

      .cls-5 {
        fill: #b1b4c4;
      }

      .cls-6 {
        fill: #e4e7f2;
      }

      .cls-7 {
        fill: #3584f0;
      }

      .cls-8 {
        fill: #fff;
      }

      .cls-21, .cls-9 {
        fill: #fcc993;
      }

      .cls-9 {
        opacity: 0.5;
      }

      .cls-10 {
        fill: #e9eaf2;
        stroke-width: 0.1px;
      }

      .cls-10, .cls-30, .cls-31 {
        stroke: #3584f0;
      }

      .cls-10, .cls-11, .cls-12, .cls-30, .cls-31 {
        stroke-miterlimit: 10;
      }

      .cls-11, .cls-12, .cls-30, .cls-31 {
        fill: none;
      }

      .cls-11, .cls-12 {
        stroke: #e9eaf2;
      }

      .cls-11 {
        stroke-width: 0.22px;
      }

      .cls-12 {
        stroke-width: 1.09px;
      }

      .cls-13, .cls-24 {
        fill: #d6d8e5;
      }

      .cls-13 {
        opacity: 0.4;
      }

      .cls-14 {
        fill: #ffcea9;
      }

      .cls-15 {
        fill: #38226d;
      }

      .cls-16 {
        fill: #9c73ff;
      }

      .cls-17 {
        fill: #8c50ff;
      }

      .cls-18 {
        fill: #ededed;
      }

      .cls-19 {
        fill: #f4f4f4;
      }

      .cls-20 {
        fill: #3a2c6d;
      }

      .cls-22 {
        fill: #a1a5b5;
      }

      .cls-23 {
        fill: #3e7eff;
      }

      .cls-23, .cls-25 {
        opacity: 0.1;
      }

      .cls-26 {
        fill: #2b2a30;
      }

      .cls-27 {
        fill: #bf4b4b;
      }

      .cls-28 {
        fill: #e26161;
      }

      .cls-29 {
        fill: #723105;
      }

      .cls-30 {
        stroke-width: 4px;
      }

      .cls-31 {
        stroke-width: 2px;
      }
    </style>
  </defs>
  <g id="iso_work" class="cls-1">
    <g id="Layer_2" data-name="Layer 2">
      <g id="Layer_1" data-name="Layer 1">
        <g id="ISO_WORK-2" data-name="ISO_WORK">
          <g id="PLATFORM" transform="translate(0 191.821)">
            <g id="Group_13" data-name="Group 13" transform="translate(0 0)">
              <image id="Rectangle_33" data-name="Rectangle 33" class="cls-2" width="645" height="415" transform="translate(0 0.179)" xlink:href="iso_work-image.png"/>
              <path id="Path_46" data-name="Path 46" class="cls-3" d="M574.591,324.723a5.443,5.443,0,0,0,.191-2.245v-.762l.068-1.225c.136-1.361-2.422-3.892-5.688-5.7L324.62,179.305a13.5,13.5,0,0,0-11.88,0L32.083,338.522c-3.266,1.837-4,4.545-1.66,6s6.5,8.845,9.757,10.7L276.855,490.241c3.252,1.851,6.559,3.089,7.348,2.722a43,43,0,0,1,8.043-.612c2.722,0,5.579,0,6.246.136a23.055,23.055,0,0,0,8.165-2.871l237.75-140.029a29.938,29.938,0,0,0,9.118-9.118l3.212-1.361a48.254,48.254,0,0,0,12.329-7.961A34.907,34.907,0,0,0,574.591,324.723Z" transform="translate(10.484 -127.62)"/>
            </g>
            <path id="Path_47" data-name="Path 47" class="cls-4" d="M27.742,278.782l-.912,34.96s-.3,5.062,7.09,8.4L280.312,462.684a24.046,24.046,0,0,0,22.3.789L581.831,299.031s2.273-1.837,0-6.722l1.361-33.9Z" transform="translate(9.681 -98.58)"/>
            <path id="Path_48" data-name="Path 48" class="cls-3" d="M325.744,151.362a13.608,13.608,0,0,0-11.88,0L28.5,313.205c-3.252,1.851-3.266,4.872,0,6.722l258.19,147.31a13.078,13.078,0,0,0,11.785-.082L582.137,300.087c3.225-1.905,3.184-4.94-.082-6.8Z" transform="translate(9.401 -137.698)"/>
            <path id="Path_49" data-name="Path 49" class="cls-4" d="M318.567,160.835a13.459,13.459,0,0,0-11.866,0L45.149,309.207c-3.266,1.851-3.266,4.872,0,6.736L281.716,450.9a13,13,0,0,0,11.771-.082l260-153.175c3.212-1.892,3.184-4.94-.1-6.8Z" transform="translate(15.407 -134.285)"/>
          </g>
          <g id="Laptop" transform="translate(331.727)">
            <g id="Group_14" data-name="Group 14" transform="translate(0)">
              <image id="Rectangle_34" data-name="Rectangle 34" class="cls-2" width="282" height="361" transform="translate(0.273)" xlink:href="iso_work-image2.png"/>
              <path id="Path_50" data-name="Path 50" class="cls-5" d="M482.1,322.452,270.105,200.059c-2.967-1.715-5.375-6.314-5.375-10.247V25.791c0-3.96,2.409-5.784,5.375-4.082L482.1,144.183c2.98,1.715,5.443,6.328,5.443,10.261v163.98C487.484,322.343,485.075,324.18,482.1,322.452Z" transform="translate(-236.205 7.603)"/>
            </g>
            <path id="Path_51" data-name="Path 51" class="cls-5" d="M425.26,245.985l2.354-1.347-1.021-6.967Z" transform="translate(-178.282 85.758)"/>
            <path id="Path_52" data-name="Path 52" class="cls-5" d="M264.45,22.651l2.3-1.361,3.32,1.892s-3.538.531-3.62.517S264.45,22.651,264.45,22.651Z" transform="translate(-236.306 7.682)"/>
            <path id="Path_53" data-name="Path 53" class="cls-6" d="M480.642,323.282,268.693,200.889c-2.967-1.728-5.443-6.328-5.443-10.261V26.622c0-3.974,2.422-5.784,5.443-4.082l212,122.475c2.967,1.7,5.375,6.328,5.375,10.247V319.214C486.086,323.173,483.663,325,480.642,323.282Z" transform="translate(-236.739 7.902)"/>
            <path id="Path_54" data-name="Path 54" class="cls-7" d="M480.406,323.444,268.443,201.037c-2.98-1.715-5.443-6.314-5.443-10.247V26.783c0-3.974,2.409-5.8,5.443-4.082l211.99,122.475c2.967,1.715,5.375,6.328,5.375,10.261V319.375C485.781,323.321,483.373,325.159,480.406,323.444Z" transform="translate(-236.83 7.959)"/>
            <path id="Path_55" data-name="Path 55" class="cls-8" d="M482.147,312.514,265,187.127l.109-160.578c0-1.647,1.157-2.313,2.586-1.5l211.99,122.475a5.688,5.688,0,0,1,2.585,4.45Z" transform="translate(-236.108 8.914)"/>
            <path id="Path_56" data-name="Path 56" class="cls-9" d="M482.134,312.42,265,187.087l.122-160.659c0-1.647,1.157-2.313,2.572-1.483l211.99,122.475a5.7,5.7,0,0,1,2.586,4.477Z" transform="translate(-236.108 8.872)"/>
            <path id="Path_57" data-name="Path 57" class="cls-10" d="M346.039,89.471,277.331,49.831a2.45,2.45,0,0,1-1.021-1.987v-4.79c0-.776.476-1.129,1.021-.789l68.708,39.641a2.449,2.449,0,0,1,1.021,1.987v4.8C347.087,89.458,346.651,89.812,346.039,89.471Z" transform="translate(-232.027 15.203)"/>
            <path id="Path_58" data-name="Path 58" class="cls-10" d="M328.309,86.937,277.6,57.666a2.49,2.49,0,0,1-1.034-2.055V53.243c0-.762.463-1.129,1.034-.789l50.7,29.367a2.477,2.477,0,0,1,1.021,2.041v2.381C329.357,86.924,328.948,87.264,328.309,86.937Z" transform="translate(-231.933 18.881)"/>
            <path id="Path_59" data-name="Path 59" class="cls-10" d="M328.309,93.565,277.6,64.293a2.49,2.49,0,0,1-1.034-2.055V59.912c0-.762.463-1.116,1.034-.789l50.7,29.285a2.477,2.477,0,0,1,1.021,2v2.368C329.357,93.551,328.948,93.891,328.309,93.565Z" transform="translate(-231.933 21.289)"/>
            <path id="Path_60" data-name="Path 60" class="cls-7" d="M318.756,94.707,277.6,70.988a2.45,2.45,0,0,1-1.034-2V66.552c0-.762.463-1.116,1.034-.789l41.151,23.76a2.49,2.49,0,0,1,1.021,2.055v2.381C319.79,94.707,319.341,95.02,318.756,94.707Z" transform="translate(-231.933 23.685)"/>
            <path id="Path_61" data-name="Path 61" class="cls-10" d="M346.039,159.194l-68.708-39.641a2.49,2.49,0,0,1-1.021-2.055v-4.736c0-.776.476-1.116,1.021-.789l68.708,39.641a2.5,2.5,0,0,1,1.021,2.055v4.79C347.087,159.18,346.651,159.52,346.039,159.194Z" transform="translate(-232.027 40.358)"/>
            <path id="Path_62" data-name="Path 62" class="cls-10" d="M328.309,156.646,277.6,127.4a2.422,2.422,0,0,1-1.034-1.987v-2.381c0-.762.463-1.129,1.034-.789l50.7,29.285a2.449,2.449,0,0,1,1.021,1.987V155.9C329.357,156.618,328.948,156.972,328.309,156.646Z" transform="translate(-231.933 44.063)"/>
            <path id="Path_63" data-name="Path 63" class="cls-10" d="M328.309,163.286l-50.7-29.271a2.531,2.531,0,0,1-1.034-2v-2.381c0-.762.463-1.129,1.034-.789l50.7,29.285a2.477,2.477,0,0,1,1.021,2.041v2.381C329.357,163.273,328.948,163.627,328.309,163.286Z" transform="translate(-231.933 46.444)"/>
            <path id="Path_64" data-name="Path 64" class="cls-7" d="M318.756,164.424,277.6,140.664a2.531,2.531,0,0,1-1.034-2v-2.422c0-.762.463-1.116,1.034-.789l41.151,23.76a2.449,2.449,0,0,1,1.021,1.987v2.4C319.79,164.4,319.341,164.819,318.756,164.424Z" transform="translate(-231.933 48.831)"/>
            <path id="Path_65" data-name="Path 65" class="cls-10" d="M341.258,156.859s7.566,6.355,18.507-2.327c7.811-6.41,14.792-2.722,18.684-.531s9.526,3.538,20.208,22.862a28.482,28.482,0,0,0,9.226,9.363c5.756,3.32,8.519,1.715,13.037-5.117s7.471-14.357,15.786-9.444v68.5l-96.2-55.522V156.465Z" transform="translate(-208.862 54.464)"/>
            <path id="Path_66" data-name="Path 66" class="cls-10" d="M343.428,154.928l-65.823-38.1a2.5,2.5,0,0,1-1.034-2V76.912c0-.762.463-1.116,1.034-.789L343.428,114.1a2.518,2.518,0,0,1,1.021,2v37.94C344.462,154.846,344,155.186,343.428,154.928Z" transform="translate(-231.933 27.423)"/>
            <path id="Path_67" data-name="Path 67" class="cls-11" d="M340.5,154.12v29.407l96.2,55.522v-68.5" transform="translate(-208.865 55.611)"/>
            <line id="Line_5" data-name="Line 5" class="cls-11" y2="52.092" transform="translate(169.452 208.792)"/>
            <line id="Line_6" data-name="Line 6" class="cls-11" y2="36.144" transform="translate(198.873 241.737)"/>
            <path id="Path_68" data-name="Path 68" class="cls-12" d="M340.5,156.442c17.065,10.587,19.487-13.336,38.1-2.6s16.031,24.713,29.748,32.66,14.044-23.039,28.36-14.765" transform="translate(-208.865 54.486)"/>
            <ellipse id="Ellipse_10" data-name="Ellipse 10" class="cls-7" cx="1.851" cy="3.212" rx="1.851" ry="3.212" transform="translate(166.244 206.948) rotate(-30)"/>
            <ellipse id="Ellipse_11" data-name="Ellipse 11" class="cls-7" cx="1.871" cy="3.236" rx="1.871" ry="3.236" transform="translate(228.116 224.919) rotate(-29.887)"/>
            <ellipse id="Ellipse_12" data-name="Ellipse 12" class="cls-7" cx="1.871" cy="3.236" rx="1.871" ry="3.236" transform="translate(199.009 240.013) rotate(-29.887)"/>
            <ellipse id="Ellipse_13" data-name="Ellipse 13" class="cls-7" cx="1.864" cy="3.225" rx="1.864" ry="3.225" transform="translate(129.496 209.837) rotate(-29.89)"/>
            <path id="Path_69" data-name="Path 69" class="cls-10" d="M343.817,124.253l-3.933-2.273a2.5,2.5,0,0,1-1.034-1.987V100.942c0-.762.476-1.116,1.034-.789l3.933,2.286a2.5,2.5,0,0,1,1.034,1.987v19.052C344.865,124.2,344.416,124.593,343.817,124.253Z" transform="translate(-209.461 36.094)"/>
            <path id="Path_70" data-name="Path 70" class="cls-7" d="M350.5,133.338l-3.946-2.218a2.545,2.545,0,0,1-1.034-2v-38.8c0-.776.476-1.116,1.034-.789l3.946,2.273a2.491,2.491,0,0,1,1.021,2.055v38.688C351.535,133.324,351.072,133.664,350.5,133.338Z" transform="translate(-207.054 32.261)"/>
            <path id="Path_71" data-name="Path 71" class="cls-10" d="M363.847,140.041l-3.933-2.273a2.531,2.531,0,0,1-1.034-2V100.8c0-.776.463-1.129,1.034-.8l3.933,2.286a2.531,2.531,0,0,1,1.034,2v34.973C364.881,140.028,364.4,140.368,363.847,140.041Z" transform="translate(-202.233 36.036)"/>
            <path id="Path_72" data-name="Path 72" class="cls-7" d="M370.5,142.3l-3.933-2.273a2.449,2.449,0,0,1-1.021-1.987v-29c0-.762.463-1.116,1.021-.789l3.933,2.286a2.531,2.531,0,0,1,1.034,2v28.972C371.606,142.287,371.089,142.627,370.5,142.3Z" transform="translate(-199.827 39.017)"/>
            <path id="Path_73" data-name="Path 73" class="cls-10" d="M383.787,146.106l-3.933-2.273a2.531,2.531,0,0,1-1.034-2.055V127.422c0-.762.476-1.116,1.034-.789l3.933,2.286a2.463,2.463,0,0,1,1.021,2v14.357C384.835,146.092,384.345,146.446,383.787,146.106Z" transform="translate(-195.039 45.649)"/>
            <path id="Path_74" data-name="Path 74" class="cls-7" d="M390.471,159.051l-3.946-2.273a2.531,2.531,0,0,1-1.034-2v-48.7c0-.776.476-1.13,1.034-.789l3.946,2.273a2.449,2.449,0,0,1,1.021,1.987v48.7C391.5,159.037,391.042,159.377,390.471,159.051Z" transform="translate(-192.632 37.943)"/>
            <path id="Path_75" data-name="Path 75" class="cls-10" d="M406.737,159.354l-3.946-2.313a2.572,2.572,0,0,1-1.021-2V140.684c0-.776.476-1.129,1.021-.789l3.946,2.273a2.5,2.5,0,0,1,1.034,1.987V158.51C407.785,159.341,407.322,159.681,406.737,159.354Z" transform="translate(-186.757 50.431)"/>
            <path id="Path_76" data-name="Path 76" class="cls-7" d="M413.407,164.424l-3.946-2.273a2.449,2.449,0,0,1-1.021-1.987V141.113c0-.762.463-1.129,1.021-.789l3.946,2.286a2.5,2.5,0,0,1,1.034,1.987v19.052C414.455,164.424,413.992,164.764,413.407,164.424Z" transform="translate(-184.351 50.587)"/>
          </g>
          <g id="Girl_4" data-name="Girl 4" transform="translate(247.014 269.903)">
            <ellipse id="Ellipse_14" data-name="Ellipse 14" class="cls-13" cx="33.694" cy="19.446" rx="33.694" ry="19.446" transform="translate(21.79 161.357)"/>
            <path id="_Контур_33" data-name=" Контур 33" class="cls-14" d="M237.346,221.35c2.98.844,4.64,4.082,7.226,11.064a58.311,58.311,0,0,1,3.1,19.623c-.83,6.573-3.552,11.676-10.111,17l-3.144-5.756s6.437-5.675,7.09-12.247c.367-3.674-3.946-16.1-3.946-16.439S237.346,221.35,237.346,221.35Z" transform="translate(-162.429 -190.033)"/>
            <path id="Path_77" data-name="Path 77" class="cls-15" d="M222.548,333.2a7.185,7.185,0,0,1-5.933-.8c-1.606,0-11.036-3.7-12.247-.572-1.034,2.722,2.722,5.307,4.749,5.8,4.45,1.061,7.661,3.252,9.444,3.62a4.423,4.423,0,0,0,4.082-.558C223.895,339.43,223.786,334.831,222.548,333.2Z" transform="translate(-173.337 -150.625)"/>
            <path id="Path_78" data-name="Path 78" class="cls-16" d="M218.559,340.007c-1.783-.381-5.035-2.572-9.444-3.647-1.674-.395-4.6-2.259-4.885-4.45-.408,2.518,2.967,4.763,4.885,5.226,4.45,1.061,7.661,3.252,9.444,3.62a4.436,4.436,0,0,0,4.082-.558,2.872,2.872,0,0,0,.572-1.061A5.294,5.294,0,0,1,218.559,340.007Z" transform="translate(-173.335 -150.14)"/>
            <path id="Path_79" data-name="Path 79" class="cls-15" d="M239.955,324.018a5.62,5.62,0,0,1-5.171-.776c-1.483,0-11.186-3.538-12.329-.531-.993,2.654,2.64,5.089,4.572,5.566,4.246,1.021,7.43,3.143,9.09,3.5a4.327,4.327,0,0,0,3.919-.544C241.248,330.019,241.153,325.6,239.955,324.018Z" transform="translate(-166.807 -153.897)"/>
            <path id="Path_80" data-name="Path 80" class="cls-16" d="M236.116,330.591c-1.715-.381-4.845-2.49-9.09-3.511-1.619-.395-4.45-2.177-4.708-4.3-.367,2.436,2.967,4.6,4.708,5.035,4.246,1.021,7.43,3.144,9.09,3.5a4.327,4.327,0,0,0,3.919-.544,2.531,2.531,0,0,0,.544-1.034,5.049,5.049,0,0,1-4.464.857Z" transform="translate(-166.806 -153.435)"/>
            <path id="_Контур_34" data-name=" Контур 34" class="cls-14" d="M246.547,326.233a31.788,31.788,0,0,0-1.837-10.614s1.211-14.534,2.15-24.087c1.361-14.071,3.538-15.473,2.967-24.019-.558-7.934-5.076-13.078-6.246-18.453l-22.971,1.824s-2.014,6.518-4.6,19.487-2.722,28.414-2.545,48.84c0,5.28-.9,9.852-.6,22.971.2,8.832.708,19.637.708,19.637,3.361,2.885,5.688.762,5.688.762s5.947-26.141,6.8-32.143a18.943,18.943,0,0,0-.8-9.921s1.728-8.165,2.967-14.67c1.483-7.879,5.443-24.9,5.443-24.9s-.667,26.155.476,31.3,1.361,9.635,2.327,16.643c1.17,8.464,1.7,20.862,1.7,20.862,3.511,2.232,5.062.517,5.062.517S246.547,333.649,246.547,326.233Z" transform="translate(-170.228 -180.035)"/>
            <path id="Path_81" data-name="Path 81" class="cls-17" d="M243.462,249.06c2.409,2.477,6.4,9.975,6.4,21.311,0,12.778-1.864,10.193-2.722,24.25l-.9,14.071s-19.2,9.158-32.891.667c-1.211-2.722.463-32.238,2.871-42.757s4.082-15.663,4.082-15.663S237.9,255.7,243.462,249.06Z" transform="translate(-170.179 -180.035)"/>
            <path id="_Контур_35" data-name=" Контур 35" class="cls-14" d="M241.8,229.516c-4.9-.3-5.443.517-5.756-1.225-.136-.612-.422-4.926-.422-4.926a16.33,16.33,0,0,0,1.238-1.81,12.424,12.424,0,0,0,5.933-9.335,12.56,12.56,0,0,0-11.2-13.812c-6.477-.667-11.268,3.892-12.547,10.152-.68,3.089-1.361,9.4.544,14.466,1.075,2.871,2.082,4.872,4.668,4.763a14.782,14.782,0,0,0,2.558-.435,24.156,24.156,0,0,1,.15,3.579c0,1.252.15,1.878-2.313,3.388s3.715,4.613,7.73,4.314,8.546-2.722,9.784-5.334C243.54,230.387,244.1,229.652,241.8,229.516Z" transform="translate(-168.229 -198.335)"/>
            <path id="Path_82" data-name="Path 82" class="cls-18" d="M238.634,241.686s5.539-1.238,8.083-3.715c0,0-3.293-10.383-5.443-12.969s-4.164,14.085-4.164,14.085Z" transform="translate(-161.458 -188.814)"/>
            <path id="_Контур_36" data-name=" Контур 36" class="cls-19" d="M237.264,221.193c.912,1.13,1.007,2.545-2.477,3.429a11.064,11.064,0,0,1-7.648-.585,51.708,51.708,0,0,0-7.906,4.178c-2.967,9.812-.572,11.064-1.824,18.1.49,3.525,1.075,12.642,1.225,14.711,6.668,4.668,20.195,3.075,23.216-1.878a42.542,42.542,0,0,1,.463-4.913c3.184-11.785,5.661-14.847,4.79-23.76-.517-5.076-.912-7.634-3.62-9a23.774,23.774,0,0,0-6.219-.286Z" transform="translate(-168.567 -190.121)"/>
            <path id="_Контур_37" data-name=" Контур 37" class="cls-14" d="M188.978,257.219a33.278,33.278,0,0,1,4.45,1.279,15.556,15.556,0,0,0,4.355,1.483c1.633.245,4.191-.6,8.6-2.722a47.48,47.48,0,0,0,12.914-9.7,111.957,111.957,0,0,0,11.295-16.112c1.905-3.5,4.327-4.368,6.437-3.688,2.531.83,2.844,3.348,0,8.029A89.2,89.2,0,0,1,224.115,252.7a48.473,48.473,0,0,1-13.472,9.526,41.736,41.736,0,0,1-11.322,3.933,51.46,51.46,0,0,0-4.872,1.769,16.806,16.806,0,0,1-7.947.871c-2.218-.435-2.967-.939-3.062-1.483s.354-.939,1.361-.857a13.609,13.609,0,0,0,4.926-.122s-2.286-.068-3.633-.231a13.134,13.134,0,0,1-3.538-.9c-1.089-.463-1.483-2.164-.381-2.109s1.837.381,3.851.6a14.083,14.083,0,0,0,3.212,0,25.968,25.968,0,0,1-3.933-.98,5.552,5.552,0,0,1-2.722-1.7c-.367-.422-.272-1.483,1.021-1.211a20.181,20.181,0,0,0,4.817,1.048c1.647,0,2.817-.122,2.613-.381s-1.184-.218-2.436-.925-1.987-2.041-1.483-2.722S187.617,256.742,188.978,257.219Z" transform="translate(-181.518 -187.799)"/>
            <path id="Path_83" data-name="Path 83" class="cls-18" d="M223.072,242.129a17.773,17.773,0,0,1-10.152-5.144l6.137-8.532s3.47-4.368,8.042-1.892c0,0,3.443.367,0,7.58a69.65,69.65,0,0,1-4.028,7.988Z" transform="translate(-170.187 -188.427)"/>
            <path id="Path_84" data-name="Path 84" class="cls-20" d="M218.156,204.859a5.688,5.688,0,0,1,6.41-4.681,10.887,10.887,0,0,1,7.308-1.769c5.838.612,9.662,4.45,11.417,10.247a45.138,45.138,0,0,1,1.728,8.9c1.755,13,6.478,23.311,2.068,27.217s-16.507,6.314-21.556,3.892,4.164-24.808-5.838-37.259C217.34,208.4,217.122,206.343,218.156,204.859Z" transform="translate(-168.51 -198.337)"/>
          </g>
          <g id="SEO" transform="translate(97.912 164.07)">
            <path id="Path_85" data-name="Path 85" class="cls-13" d="M164.745,266.419,71.95,212.844,199.419,139.25,292.2,192.812Z" transform="translate(-71.95 -113.825)"/>
            <path id="Path_86" data-name="Path 86" class="cls-5" d="M291.628,189.667,201.909,137.86,77.5,209.7l-3.062-1.769v3.525l92.781,53.576L294.69,191.436v-3.525Z" transform="translate(-71.052 -114.326)"/>
            <path id="Path_87" data-name="Path 87" class="cls-21" d="M167.221,262.439,74.44,208.864,201.909,135.27l92.781,53.576Z" transform="translate(-71.052 -115.261)"/>
            <path id="Path_88" data-name="Path 88" class="cls-7" d="M235.886,191.327l-74.4-42.948,7.376-4.259,74.4,42.961Z" transform="translate(-39.641 -112.067)"/>
            <path id="Path_89" data-name="Path 89" class="cls-7" d="M230.126,194.1l-74.4-42.961,3.674-2.123,74.4,42.948Z" transform="translate(-41.72 -110.299)"/>
            <path id="Path_90" data-name="Path 90" class="cls-7" d="M225.643,196.671,151.26,153.723l3.674-2.123,74.4,42.948Z" transform="translate(-43.333 -109.368)"/>
            <path id="Path_91" data-name="Path 91" class="cls-7" d="M221.186,199.264,146.79,156.3l3.688-2.123,74.4,42.948Z" transform="translate(-44.946 -108.437)"/>
            <path id="Path_92" data-name="Path 92" class="cls-7" d="M188.43,218.737l-74.41-42.948,7.376-4.259,74.383,42.961Z" transform="translate(-56.77 -102.177)"/>
            <path id="Path_93" data-name="Path 93" class="cls-7" d="M177.553,218.565,108.26,178.557l3.674-2.137,69.307,40.022Z" transform="translate(-58.848 -100.413)"/>
            <path id="Path_94" data-name="Path 94" class="cls-7" d="M171.709,220.338,103.79,181.133l3.674-2.123L175.4,218.215Z" transform="translate(-60.461 -99.478)"/>
            <path id="Path_95" data-name="Path 95" class="cls-7" d="M156.733,216.866,99.32,183.717l3.688-2.137,57.413,33.163Z" transform="translate(-62.074 -98.551)"/>
            <path id="Path_96" data-name="Path 96" class="cls-7" d="M146.593,182.991,125.84,171.015l20.753-11.975,20.753,11.975Z" transform="translate(-52.505 -106.684)"/>
            <path id="Path_97" data-name="Path 97" class="cls-7" d="M166.306,194.374,145.54,182.4l20.766-11.989L187.059,182.4Z" transform="translate(-45.397 -102.581)"/>
            <path id="Path_98" data-name="Path 98" class="cls-7" d="M186,205.754,165.25,193.765,186,181.79l20.766,11.989Z" transform="translate(-38.285 -98.475)"/>
            <g id="MAG" transform="translate(65.917)">
              <path id="Path_99" data-name="Path 99" class="cls-5" d="M214.032,136.835a26.672,26.672,0,0,0-4.777-3.484c-12.982-7.5-34.1-7.5-47.071,0a25.949,25.949,0,0,0-5.443,4.164c-7.144,7.321-5.307,16.793,5.443,23.012,12.969,7.512,34.021,7.512,47.071,0C220.374,154.117,221.966,144.238,214.032,136.835Zm-8.913,21.27c-10.7,6.178-28.128,6.178-38.8,0-7.5-4.327-9.744-10.574-6.722-16.044a17.691,17.691,0,0,1,6.723-6.355c10.7-6.165,28.128-6.165,38.8,0a17.364,17.364,0,0,1,6.7,6.355h0C214.862,147.572,212.617,153.8,205.119,158.1Z" transform="translate(-108.811 -117.982)"/>
              <path id="Path_100" data-name="Path 100" class="cls-22" d="M210.831,144.014h0a17.337,17.337,0,0,0-6.7-6.341c-10.7-6.165-28.128-6.165-38.8,0a17.5,17.5,0,0,0-6.723,6.341l-2.885-4.6-.531-.844,3.81-8.954,13.01-7.226,24.25.422,16.466,9.757s.3,3.1.34,6.151C213.09,142.544,212.709,146.273,210.831,144.014Z" transform="translate(-107.828 -119.908)"/>
              <path id="Path_101" data-name="Path 101" class="cls-5" d="M152.46,144.475l.014-10.165,5.035,8.546Z" transform="translate(-108.817 -115.607)"/>
              <path id="Path_102" data-name="Path 102" class="cls-5" d="M202.53,144.461V134.35l-4.45,5.035Z" transform="translate(-92.356 -115.593)"/>
              <ellipse id="Ellipse_15" data-name="Ellipse 15" class="cls-23" cx="27.693" cy="15.99" rx="27.693" ry="15.99" transform="translate(49.522 7.803)"/>
              <path id="Path_103" data-name="Path 103" class="cls-5" d="M154.32,144.519s4.259,16.806,36.076,15.949c22.073,0,24.89-18.984,24.372-21.678a26.523,26.523,0,0,1-19.514,10.887c-13.431,1.17-23.352,1.021-28.659-1.551s-12.247-9.308-12.247-9.308Z" transform="translate(-108.145 -113.991)"/>
              <path id="Path_104" data-name="Path 104" class="cls-24" d="M162.192,153.422c-12.982-7.5-12.982-19.678,0-27.217s34.021-7.5,47.071,0,12.969,19.691,0,27.217S175.16,160.92,162.192,153.422Zm42.921-24.781c-10.7-6.165-28.115-6.178-38.784,0s-10.7,16.221,0,22.386,28.128,6.178,38.784,0,10.751-16.262,0-22.386Z" transform="translate(-108.818 -120.566)"/>
              <ellipse id="Ellipse_16" data-name="Ellipse 16" class="cls-25" cx="3.661" cy="6.328" rx="3.661" ry="6.328" transform="translate(0 62.632) rotate(-30)"/>
              <path id="Path_105" data-name="Path 105" class="cls-5" d="M166.98,148.49l-14.017,8.1-4.314-2.5,14-8.083Z" transform="translate(-110.191 -111.389)"/>
              <path id="Path_106" data-name="Path 106" class="cls-22" d="M165.837,152.828l-14.017,8.083v-4.994l14.017-8.1Z" transform="translate(-109.047 -110.732)"/>
              <path id="Path_107" data-name="Path 107" class="cls-4" d="M165.188,158.584a9.893,9.893,0,0,0-4.477-7.743,3.13,3.13,0,0,0-3.116-.34h0L122.73,170.614l6.355,10.887,34.429-19.868A2.939,2.939,0,0,0,165.188,158.584Z" transform="translate(-119.544 -109.861)"/>
              <ellipse id="Ellipse_17" data-name="Ellipse 17" class="cls-4" cx="3.661" cy="6.328" rx="3.661" ry="6.328" transform="translate(0 62.632) rotate(-30)"/>
            </g>
          </g>
          <g id="Men_13" data-name="Men 13" transform="translate(188.148 237.254)">
            <ellipse id="Ellipse_18" data-name="Ellipse 18" class="cls-13" cx="32.769" cy="18.916" rx="32.769" ry="18.916" transform="translate(0 156.597)"/>
            <path id="Path_108" data-name="Path 108" class="cls-26" d="M151.393,299.83c2.245,1.81,5.539.15,5.688.327q3.951,3.606,8.247,6.8c1.442,1.1,3.565,2.558,3.171,4.668-.694,3.756-6.722,2.6-9,1.442s-4.083-3.048-6.287-4.327c-1.538-.953-3.035-1.442-3.28-3.388C149.719,304.144,150.93,299.776,151.393,299.83Z" transform="translate(-134.056 -129.067)"/>
            <path id="Path_109" data-name="Path 109" class="cls-27" d="M149.939,303.32c.3,1.851,1.8,2.368,3.307,3.307,2.191,1.361,4.082,3.32,6.382,4.464s7.335,2.123,8.818-.572c-.8,3.633-6.722,2.49-8.981,1.361s-4.082-3.048-6.273-4.327c-1.538-.953-3.035-1.442-3.28-3.388a5.643,5.643,0,0,1,.027-.844Z" transform="translate(-134.058 -127.808)"/>
            <path id="Path_110" data-name="Path 110" class="cls-26" d="M165.647,294.533c2.245,1.824,6.137-.163,6.314,0a87.092,87.092,0,0,0,7.348,6.655c1.442,1.089,3.565,2.558,3.184,4.668-.708,3.756-6.736,2.6-9.009,1.442s-4.082-3.062-6.273-4.327c-1.538-.953-3.048-1.442-3.28-3.375C163.783,298.356,165.266,294.492,165.647,294.533Z" transform="translate(-129 -130.982)"/>
            <path id="Path_111" data-name="Path 111" class="cls-27" d="M164.009,297.82c.3,1.851,1.8,2.368,3.307,3.307,2.191,1.361,4.083,3.32,6.382,4.477s7.335,2.109,8.818-.572c-.8,3.62-6.723,2.49-8.968,1.361s-4.082-3.062-6.273-4.4c-1.551-.953-3.048-1.443-3.293-3.388a4.925,4.925,0,0,1,.027-.789Z" transform="translate(-128.981 -129.792)"/>
            <path id="_Контур_38" data-name=" Контур 38" class="cls-28" d="M150.951,241.328c.122,3.375,1.157,18.045,1.633,25.856s.585,17.337.585,17.337-1.361,5.647-2.218,12.247,0,27.625,0,27.625a5.307,5.307,0,0,0,5.784,0s3.579-16.793,5.226-24.359,1.946-11.934,2.8-16.616c1.034-5.675,3.28-32.143,3.28-32.143h.9l2.4,29.938a33.134,33.134,0,0,0-1.524,6.8c-.64,4.858.694,29.353.694,29.353a5.933,5.933,0,0,0,6.192-.259s5.96-32.442,5.96-37.355c0-3.28-.544-46.268-.544-46.268Z" transform="translate(-133.818 -153.004)"/>
            <path id="_Контур_39" data-name=" Контур 39" class="cls-29" d="M157.93,191.29s.367,7.362.218,8.015-3.388,2.8-4.341,3.579,5.1,6.668,8.029,8.165,12.247-2.191,12.384-6.8-1.592-8.4-3.007-8.6S157.93,191.29,157.93,191.29Z" transform="translate(-132.687 -168.231)"/>
            <path id="Path_112" data-name="Path 112" class="cls-29" d="M171.766,203.7c.435-3.252-1.7-6.341.367-8.927,7.226,7.131,6.355,25.992,8,38.1,5.443,5.634,16.248,11.2,19.3,12.574.544.259,1.034.531.925,1.116a13.391,13.391,0,0,1-2.531,5.525C190.6,249,185.483,247.216,176.5,238.7a19.405,19.405,0,0,1-2.259-2.994C171.684,227.974,171.031,209.3,171.766,203.7Z" transform="translate(-126.369 -166.975)"/>
            <path id="_Контур_40" data-name=" Контур 40" class="cls-19" d="M158.523,199.843s5.348,7.961,12.805,8.668c2.354-2.313,2.545-10.56-.694-13.2,0,0,2.98-2.409,5.035-1.946a10.614,10.614,0,0,1,4.654,5.92,48.31,48.31,0,0,1,2.626,17.038c-.136,7.811,0,31.694,0,31.694s-1.034,5.035-7.784,8.791-11.758,4.082-16.33,3.062c-3.77-.884-6.9-2.2-8.165-4.94.34-5.443,2.79-19.773,1.878-26.659s-2.368-12.016-2.722-17.6.721-5.443,3.525-7.43A42.447,42.447,0,0,1,158.523,199.843Z" transform="translate(-134.11 -167.503)"/>
            <path id="_Контур_41" data-name=" Контур 41" class="cls-29" d="M174.734,185.8h0c-.871-5.77-4.994-10.111-10.887-9.716a11.336,11.336,0,0,0-5.77,20.7,11.58,11.58,0,0,0,.9,2.49c2.082,2.45,8.4,3.946,10.206,3.688a5.443,5.443,0,0,0,4.736-3.8C175.9,194.635,175.292,188.62,174.734,185.8Z" transform="translate(-132.902 -173.726)"/>
            <path id="Path_113" data-name="Path 113" class="cls-26" d="M158.68,197.4h0l.531-4.994s-4.083-10.546,5.566-8.519c6.355,1.361,7.934,1.932,9.88-2.341s-4.885-8.1-13.01-7.022a11.172,11.172,0,0,0-10.016,11.349C151.862,188.994,152.692,195.349,158.68,197.4Z" transform="translate(-133.436 -174.345)"/>
            <path id="Path_114" data-name="Path 114" class="cls-29" d="M148.549,203.859c2.722-.789.667-.136,2.722-.789,7.212,7.117,6.369,19.337,8.015,31.394,4.014,6.654,18.9,15.609,18.9,15.609.191,1.293-.259,1.66-1.878,4.341a64.23,64.23,0,0,1-22.141-14.289c-.354-.327-.885-.435-1.021-.885C150.659,231.552,147.842,209.48,148.549,203.859Z" transform="translate(-134.587 -163.981)"/>
            <path id="Path_115" data-name="Path 115" class="cls-19" d="M206.379,214.59l-10.819,37-23.76,9.5,8.668-36.048Z" transform="translate(-126.158 -159.824)"/>
            <path id="Path_116" data-name="Path 116" class="cls-29" d="M167.665,238.5c.354-1.279,1.252-.953,2.3-.64a5.961,5.961,0,0,0,3.511.3,10.887,10.887,0,0,0,2.5-1.7,3.157,3.157,0,0,1,1.592-.449,22.291,22.291,0,0,1-.544,2.191h5.77a.9.9,0,0,1,1.034.708.925.925,0,0,1-.2.748h.354c1.061-.231,1.456,1.442.449,1.647l-.857.122c.694.272.857,1.442,0,1.592h-.953a.912.912,0,0,1-.694,1.075h-.109c-2.545.34-6.273,1.361-8.573-.748a14.328,14.328,0,0,1-4.613-1.238C167.271,241.44,167.23,240,167.665,238.5Z" transform="translate(-127.739 -152.095)"/>
            <path id="Path_117" data-name="Path 117" class="cls-29" d="M186.9,236.915h.435a.871.871,0,0,1,.5-1.579c.531,0,5.892-1.129,5.892-1.129l.653-2.191c0-.136.925.435.953.463a3.593,3.593,0,0,1,1.619,2.722,5.784,5.784,0,0,1-1.551,4.15,5.321,5.321,0,0,1-3.565,1.524c-.653,0-1.266.082-1.837.136a.939.939,0,0,1-.993-.885h-.177a.572.572,0,0,1-.367,0h-.286c-.9,0-.98-1.129-.354-1.538h-.885A.838.838,0,1,1,186.9,236.915Z" transform="translate(-121.012 -153.544)"/>
            <path id="Path_118" data-name="Path 118" class="cls-18" d="M175.672,209.016a5.811,5.811,0,0,0,3.878-1.728c-.2-2.722-3.7-13.132-10.751-13.908a12.955,12.955,0,0,1,4.327,5.307,69.4,69.4,0,0,1,2.545,10.329Z" transform="translate(-127.24 -167.477)"/>
            <path id="Path_119" data-name="Path 119" class="cls-18" d="M147.853,219.968s7.008,2.436,11.948-1.647c.558-.912-2.885-12.846-2.885-12.846s-2.885-6.1-7.539-3.674S147.853,219.968,147.853,219.968Z" transform="translate(-135.17 -164.644)"/>
          </g>
          <g id="BASE" transform="translate(350.958 332.763)">
            <path id="Path_120" data-name="Path 120" class="cls-13" d="M350.695,375.666,257.9,322.09l127.469-73.58,92.781,53.562Z" transform="translate(-257.9 -243.094)"/>
            <path id="Path_121" data-name="Path 121" class="cls-5" d="M477.592,298.927,387.859,247.12,263.452,318.945l-3.062-1.755v3.525l92.795,53.562L480.64,300.682v-3.525Z" transform="translate(-257.002 -243.595)"/>
            <path id="Path_122" data-name="Path 122" class="cls-21" d="M353.185,371.686,260.39,318.124,387.859,244.53l92.781,53.562Z" transform="translate(-257.002 -244.53)"/>
          </g>
          <g id="DEV" transform="translate(443.113 368.784)">
            <path id="Path_123" data-name="Path 123" class="cls-30" d="M366.825,271l-38.1,1.361L326,294.134" transform="translate(-325.483 -271)"/>
            <line id="Line_7" data-name="Line 7" class="cls-31" x1="71.28" y2="21.066" transform="translate(0 7.512)"/>
            <path id="Path_124" data-name="Path 124" class="cls-30" d="M386.825,282,384.1,303.773,346,305.134" transform="translate(-318.266 -267.031)"/>
          </g>
        </g>
      </g>
    </g>
  </g>
</svg>
