<svg xmlns="http://www.w3.org/2000/svg" width="80" height="117.861" viewBox="0 0 80 117.861">
  <defs>
    <style>
      .cls-1 {
        fill: #fbdebf;
      }
    </style>
  </defs>
  <g id="location" transform="translate(-78.957)">
    <g id="Group_10" data-name="Group 10" transform="translate(78.957)">
      <path id="Path_24" data-name="Path 24" class="cls-1" d="M118.957,0a40.045,40.045,0,0,0-40,40c0,8.863,5.218,22.342,16.422,42.42,7.645,13.7,15.255,25.271,15.576,25.758l5.5,8.337a3,3,0,0,0,5,0l5.5-8.337c.318-.482,7.872-11.953,15.576-25.759,11.2-20.076,16.422-33.556,16.422-42.42A40.045,40.045,0,0,0,118.957,0ZM137.3,79.5c-7.6,13.612-15.032,24.9-15.345,25.378l-3,4.546-3-4.544c-.315-.478-7.807-11.871-15.346-25.379C90.22,60.875,84.951,47.586,84.951,40a34.006,34.006,0,0,1,68.012,0C152.963,47.586,147.694,60.875,137.3,79.5Z" transform="translate(-78.957)"/>
      <path id="Path_25" data-name="Path 25" class="cls-1" d="M175.469,73.291a22.178,22.178,0,1,0,22.178,22.178A22.2,22.2,0,0,0,175.469,73.291Zm0,38.361a16.184,16.184,0,1,1,16.184-16.184A16.2,16.2,0,0,1,175.469,111.652Z" transform="translate(-135.469 -55.719)"/>
    </g>
  </g>
</svg>
