<svg xmlns="http://www.w3.org/2000/svg" width="98" height="73.5" viewBox="0 0 98 73.5">
  <defs>
    <style>
      .cls-1 {
        fill: #fbdebf;
      }
    </style>
  </defs>
  <path id="mail" class="cls-1" d="M88.813,64H9.188A9.187,9.187,0,0,0,0,73.188v55.125A9.187,9.187,0,0,0,9.188,137.5H88.813A9.187,9.187,0,0,0,98,128.313V73.188A9.187,9.187,0,0,0,88.813,64Zm0,9.188V81c-4.292,3.495-11.134,8.929-25.761,20.383-3.223,2.536-9.609,8.627-14.052,8.556-4.442.072-10.83-6.021-14.052-8.556C20.324,89.929,13.48,84.493,9.188,81v-7.81ZM9.188,128.313V92.787c4.386,3.493,10.606,8.4,20.086,15.819C33.457,111.9,40.783,119.169,49,119.125c8.176.044,15.41-7.12,19.725-10.517,9.48-7.423,15.7-12.327,20.088-15.82v35.525Z" transform="translate(0 -64)"/>
</svg>
