<svg xmlns="http://www.w3.org/2000/svg" width="90.616" height="90.616" viewBox="0 0 90.616 90.616">
  <g id="settings" transform="translate(3 -385.001)">
    <g id="Group_8" data-name="Group 8" transform="translate(-3 385.001)">
      <path id="Path_17" data-name="Path 17" d="M85.978,35.8l-6.36-1.079a35.914,35.914,0,0,0-2.555-6.171L80.81,23.3a5.581,5.581,0,0,0-.606-7.212L74.564,10.45A5.557,5.557,0,0,0,70.607,8.8,5.5,5.5,0,0,0,67.37,9.844l-5.262,3.748a35.54,35.54,0,0,0-6.4-2.631L54.65,4.677A5.592,5.592,0,0,0,49.122,0H41.153a5.592,5.592,0,0,0-5.527,4.676l-1.1,6.436a35.029,35.029,0,0,0-6.152,2.593L23.17,9.958a5.591,5.591,0,0,0-7.212.606L10.3,16.2a5.6,5.6,0,0,0-.606,7.212l3.786,5.319a35.079,35.079,0,0,0-2.518,6.19l-6.285,1.06A5.592,5.592,0,0,0,0,41.514v7.969A5.592,5.592,0,0,0,4.676,55.01l6.436,1.1a35.029,35.029,0,0,0,2.593,6.152L9.976,67.447a5.581,5.581,0,0,0,.606,7.212L16.223,80.3a5.557,5.557,0,0,0,3.956,1.647,5.5,5.5,0,0,0,3.237-1.041l5.319-3.786a35.81,35.81,0,0,0,5.982,2.461l1.06,6.36A5.592,5.592,0,0,0,41.3,90.617h7.988a5.592,5.592,0,0,0,5.527-4.676l1.079-6.36a35.914,35.914,0,0,0,6.171-2.555l5.244,3.748a5.557,5.557,0,0,0,3.256,1.041h0a5.557,5.557,0,0,0,3.956-1.647l5.641-5.641a5.6,5.6,0,0,0,.606-7.212l-3.748-5.262a35.656,35.656,0,0,0,2.555-6.171l6.36-1.06a5.592,5.592,0,0,0,4.676-5.527V41.324A5.525,5.525,0,0,0,85.978,35.8Zm-.435,13.5a.49.49,0,0,1-.416.492l-7.95,1.325a2.541,2.541,0,0,0-2.044,1.874,30.3,30.3,0,0,1-3.294,7.931,2.559,2.559,0,0,0,.114,2.783l4.676,6.587a.516.516,0,0,1-.057.644l-5.641,5.641a.481.481,0,0,1-.36.151.465.465,0,0,1-.284-.095l-6.569-4.676a2.558,2.558,0,0,0-2.783-.114A30.3,30.3,0,0,1,53,75.133a2.512,2.512,0,0,0-1.874,2.044l-1.344,7.95a.49.49,0,0,1-.492.416H41.323a.49.49,0,0,1-.492-.416l-1.325-7.95a2.541,2.541,0,0,0-1.874-2.044,31.466,31.466,0,0,1-7.761-3.18,2.62,2.62,0,0,0-1.287-.341,2.493,2.493,0,0,0-1.477.473L20.482,76.8a.563.563,0,0,1-.284.095.507.507,0,0,1-.36-.151L14.2,71.1a.513.513,0,0,1-.057-.644L18.8,63.926a2.591,2.591,0,0,0,.114-2.8,30.018,30.018,0,0,1-3.332-7.913,2.592,2.592,0,0,0-2.044-1.874L5.527,49.975a.49.49,0,0,1-.416-.492V41.514a.49.49,0,0,1,.416-.492L13.421,39.7A2.559,2.559,0,0,0,15.484,37.8a30.272,30.272,0,0,1,3.237-7.95,2.527,2.527,0,0,0-.133-2.764l-4.713-6.625a.516.516,0,0,1,.057-.644l5.641-5.641a.481.481,0,0,1,.36-.151.465.465,0,0,1,.284.095l6.531,4.657a2.591,2.591,0,0,0,2.8.114,30.018,30.018,0,0,1,7.913-3.332,2.592,2.592,0,0,0,1.874-2.044L40.7,5.51a.49.49,0,0,1,.492-.416H49.16a.49.49,0,0,1,.492.416L50.977,13.4a2.559,2.559,0,0,0,1.893,2.063A30.725,30.725,0,0,1,60.991,18.8a2.559,2.559,0,0,0,2.783-.114L70.3,13.99a.563.563,0,0,1,.284-.095.507.507,0,0,1,.36.151l5.641,5.641a.513.513,0,0,1,.057.644L71.97,26.9a2.558,2.558,0,0,0-.114,2.783,30.3,30.3,0,0,1,3.294,7.931,2.512,2.512,0,0,0,2.044,1.874l7.95,1.344a.49.49,0,0,1,.416.492v7.969Z" transform="translate(0 -0.001)" fill="#72c5ff"/>
      <path id="Path_18" data-name="Path 18" d="M155.654,136a19.554,19.554,0,1,0,19.554,19.554A19.567,19.567,0,0,0,155.654,136Zm0,34A14.443,14.443,0,1,1,170.1,155.555,14.453,14.453,0,0,1,155.654,170Z" transform="translate(-110.337 -110.257)" fill="#72c5ff"/>
    </g>
  </g>
</svg>
